# xmcd CD database file
#
# Track frame offsets:
#	150
#	17475
#	36727
#	53797
#	66535
#	78695
#	109570
#	125480
#	137640
#	141840
#	155585
#	172257
#	187232
#	201105
#	213957
#	230500
#	242695
#	254175
#	269525
#	285135
#
# Disc length: 3856 seconds
#
# Revision: 6
# Processed by: cddbd v1.5.2PL0 Copyright (c) Steve Scherf et al.
# Submitted via: CDex 1.51
#
DISCID=3c0f0e14
DTITLE=Toquinho and Vinícius - Coleção Millennium
DYEAR=1999
DGENRE=MPB
TTITLE0=Escravo Da Alegria
TTITLE1=Aquarela
TTITLE2=Como é Duro Trabalhar
TTITLE3=Onde Anda Você
TTITLE4=Por Que Será
TTITLE5=Samba Da Benção
TTITLE6=Um Homem Chamado Alfredo - Sei Lá (A Vida Tem Sempre Razão) - O Poeta Aprendiz
TTITLE7=Samba De Orly
TTITLE8=A Tonga Da Mironga Do Kabuletê
TTITLE9=Meu Pranto Rolou
TTITLE10=Tudo Na Mais Santa Paz
TTITLE11=Regra Três (ao vivo)
TTITLE12=Deixa Acontecer
TTITLE13=Samba Da Volta 
TTITLE14=São Demais Os Perigos Desta Vida - As Cores De Abril - O Filho Que Eu Quero Ter
TTITLE15=Carta Ao Tom 74
TTITLE16=Samba Pra Vinícius 
TTITLE17=Turbilhão
TTITLE18=Na Terra, No Céu Ou No Mar
TTITLE19=Cotidiano No. 2
EXTD=YEAR: 1999
EXTT0=
EXTT1=
EXTT2=
EXTT3=
EXTT4=
EXTT5=
EXTT6=
EXTT7=
EXTT8=
EXTT9=
EXTT10=
EXTT11=
EXTT12=
EXTT13=
EXTT14=
EXTT15=
EXTT16=
EXTT17=
EXTT18=
EXTT19=
PLAYORDER=
